<svg width="259" height="260" viewBox="0 0 259 260" fill="none" xmlns="http://www.w3.org/2000/svg">
<g clip-path="url(#clip0_207_132)">
<mask id="mask0_207_132" style="mask-type:luminance" maskUnits="userSpaceOnUse" x="14" y="17" width="231" height="225">
<path d="M14 17H245V242H14V17Z" fill="white"/>
</mask>
<g mask="url(#mask0_207_132)">
<path d="M70.0178 48.25V47.1706L68.9415 47.2529L53.2086 48.456L52.2848 48.5267V49.4531V52.8437V53.8437H53.2848H55.9789C57.9091 53.9893 59.0937 54.2715 59.6887 54.5964L59.9128 54.7188H59.9236C60.106 54.9131 60.3018 55.2453 60.4644 55.8032C60.6824 56.5513 60.8068 57.5949 60.8068 58.9687V115.844C60.8068 116.754 60.7451 117.464 60.6361 117.994C60.53 118.51 60.3956 118.771 60.3046 118.886L60.1442 119.046C60.1046 119.076 59.9685 119.159 59.6521 119.255C59.3185 119.356 58.8607 119.45 58.2631 119.528C57.0689 119.684 55.4155 119.766 53.2848 119.766H52.2848V120.766V124.156V125.187L53.3151 125.156C60.5015 124.938 64.5173 124.829 65.3991 124.828L77.5128 125.156L78.5398 125.184V124.156V120.766V119.766H77.5398C75.6947 119.766 74.2316 119.72 73.1408 119.632C72.0007 119.54 71.4015 119.409 71.1801 119.309L71.1492 119.294L71.1174 119.283C70.8635 119.187 70.5996 118.967 70.3834 118.426C70.1585 117.863 70.0178 117.021 70.0178 115.844V48.25Z" fill="white" stroke="white" stroke-width="2"/>
<path d="M100.391 75.8125V74.7308L99.3127 74.8156L84.0168 76.0187L83.0952 76.0912V77.0156V80.4063V81.4063H84.0952C85.642 81.4063 86.8961 81.4605 87.8672 81.5646C88.7261 81.6567 89.2998 81.7821 89.6463 81.9096L89.9083 82.1719H90.1506C90.3692 82.3429 90.6016 82.6587 90.7944 83.2378C91.038 83.9694 91.1802 85.0161 91.1802 86.4219V115.844C91.1802 116.754 91.1184 117.464 91.0095 117.994C90.9034 118.51 90.769 118.771 90.678 118.886L90.5176 119.046C90.4779 119.076 90.3419 119.159 90.0254 119.255C89.6919 119.356 89.2341 119.45 88.6365 119.528C87.4423 119.684 85.7889 119.766 83.6582 119.766H82.6582V120.766V124.156V125.188L83.6895 125.156C90.6928 124.937 94.6769 124.828 95.6764 124.828C95.6743 124.828 95.675 124.828 95.6798 124.828C95.6862 124.828 95.6998 124.829 95.7237 124.829L95.8759 124.833C96.0069 124.836 96.1951 124.841 96.4407 124.848C96.9319 124.862 97.6507 124.882 98.5975 124.91C100.491 124.964 103.295 125.046 107.01 125.156L108.039 125.186V124.156V120.766V119.766H107.039C105.381 119.766 104.053 119.711 103.045 119.607C102.042 119.503 101.459 119.358 101.182 119.23C101.038 119.136 100.839 118.914 100.673 118.387C100.497 117.83 100.391 117.031 100.391 115.953V75.8125ZM87.7554 59.4492L87.7613 59.464L87.7677 59.4786C88.3401 60.7884 89.1554 61.8311 90.24 62.5401C91.3245 63.2491 92.6071 63.5781 94.0376 63.5781C94.8977 63.5781 95.747 63.4063 96.5796 63.0749C97.9349 62.5787 99.0193 61.7986 99.7565 60.7027C100.494 59.6071 100.828 58.2787 100.828 56.7813C100.828 55.7627 100.615 54.7832 100.192 53.8522L100.192 53.8522L100.188 53.8431C99.611 52.6047 98.8006 51.6227 97.7364 50.9569C96.674 50.2922 95.4254 49.9844 94.0376 49.9844C92.8553 49.9844 91.7667 50.2797 90.8011 50.8862C89.6678 51.5 88.7695 52.3018 88.1573 53.3086C87.5386 54.3262 87.247 55.4961 87.247 56.7813C87.247 57.6288 87.4137 58.5941 87.7554 59.4492Z" fill="white" stroke="white" stroke-width="2"/>
<path d="M113.922 81.4062H116.091C118.324 81.4795 119.657 81.7713 120.295 82.1414C120.554 82.2991 120.85 82.6462 121.08 83.3839C121.311 84.1247 121.444 85.1612 121.444 86.5312V115.844C121.444 116.754 121.383 117.464 121.274 117.994C121.168 118.51 121.033 118.771 120.942 118.886L120.782 119.046C120.742 119.076 120.606 119.159 120.29 119.255C119.956 119.356 119.498 119.45 118.901 119.528C117.706 119.684 116.053 119.766 113.922 119.766H112.922V120.766V124.156V125.185L113.951 125.156C121.613 124.937 125.705 124.828 126.268 124.828C126.977 124.828 131.033 124.937 138.476 125.156L139.505 125.186V124.156V120.766V119.766H138.505C136.66 119.766 135.197 119.72 134.106 119.632C132.966 119.54 132.367 119.409 132.145 119.309L132.114 119.294L132.083 119.283C131.829 119.187 131.565 118.967 131.349 118.426C131.124 117.863 130.983 117.021 130.983 115.844V95.7188C130.983 91.2316 132.135 87.556 134.381 84.6256C137.199 80.9792 140.634 79.2188 144.733 79.2188C145.314 79.2188 145.851 79.2833 146.347 79.4076L146.382 79.4162L146.417 79.4224C148.165 79.7294 149.47 80.6959 150.374 82.4278C151.306 84.2104 151.818 86.8234 151.818 90.3594V115.844C151.818 116.754 151.756 117.464 151.647 117.994C151.541 118.51 151.407 118.771 151.316 118.886L151.155 119.046C151.115 119.076 150.979 119.159 150.663 119.255C150.329 119.356 149.872 119.45 149.274 119.528C148.08 119.684 146.426 119.766 144.296 119.766H143.296V120.766V124.156V125.185L144.324 125.156C151.986 124.937 156.078 124.828 156.642 124.828C157.351 124.828 161.407 124.937 168.849 125.156L169.878 125.186V124.156V120.766V119.766H168.878C167.033 119.766 165.57 119.72 164.479 119.632C163.339 119.54 162.74 119.409 162.519 119.309L162.488 119.294L162.456 119.283C162.202 119.187 161.938 118.967 161.722 118.426C161.497 117.863 161.356 117.021 161.356 115.844V95.7188C161.356 91.2313 162.509 87.5555 164.755 84.625C167.573 80.979 171.007 79.2188 175.106 79.2188C175.687 79.2188 176.224 79.2833 176.721 79.4076L176.755 79.4162L176.79 79.4224C178.539 79.7294 179.843 80.6959 180.748 82.4278C181.679 84.2104 182.191 86.8234 182.191 90.3594V115.844C182.191 116.754 182.129 117.464 182.02 117.994C181.914 118.51 181.78 118.771 181.689 118.886L181.528 119.046C181.489 119.076 181.353 119.159 181.036 119.255C180.703 119.356 180.245 119.45 179.647 119.528C178.453 119.684 176.8 119.766 174.669 119.766H173.669V120.766V124.156V125.185L174.698 125.156C182.359 124.937 186.451 124.828 187.015 124.828C187.724 124.828 191.78 124.937 199.222 125.156L200.252 125.186V124.156V120.766V119.766H199.252C196.542 119.766 194.841 119.69 194.063 119.561L194.051 119.559L194.04 119.557C193.147 119.429 192.598 119.159 192.272 118.843C191.966 118.548 191.761 118.122 191.73 117.462V96.5938C191.73 93.0222 191.694 90.5187 191.619 89.1037L191.619 89.1008C191.393 85.0191 190.254 81.6893 188.109 79.2163C185.645 76.1857 181.454 74.8125 175.871 74.8125C173.804 74.8125 171.839 75.1193 169.982 75.7389L169.982 75.7389L169.973 75.7419C165.843 77.1634 162.638 79.8313 160.362 83.6859C159.523 81.181 158.117 79.164 156.115 77.6874C153.463 75.7311 149.886 74.8125 145.498 74.8125C141.636 74.8125 138.242 75.8207 135.359 77.8683C133.427 79.2401 131.753 81.0582 130.328 83.301V75.8125V74.7314L129.25 74.8155L113.844 76.0187L112.922 76.0907V77.0156V80.4062V81.4062H113.922Z" fill="white" stroke="white" stroke-width="2"/>
<path d="M71.7311 166.9L71.7405 166.862L71.7469 166.824C71.789 166.571 71.8525 166.315 71.9387 166.057L71.9487 166.026L71.9568 165.996C72.6496 163.37 73.5635 161.512 74.6377 160.325C75.683 159.169 76.8972 158.625 78.332 158.625C78.7648 158.625 79.172 158.657 79.5551 158.718C78.2192 159.715 77.4849 161.073 77.4849 162.755C77.4849 163.039 77.5199 163.32 77.588 163.596C77.7833 164.466 78.2048 165.211 78.9084 165.725C79.6025 166.232 80.4625 166.434 81.3911 166.434C81.9245 166.434 82.4654 166.334 83.0078 166.153L83.0268 166.147L83.0455 166.14C84.1444 165.724 85.0354 165.079 85.6436 164.174C86.2499 163.272 86.521 162.191 86.521 160.994C86.521 159.839 86.2137 158.788 85.5703 157.886L85.5703 157.886L85.5653 157.879C84.0796 155.834 81.586 154.941 78.4084 154.941C77.8313 154.941 77.2557 154.998 76.6825 155.113L76.6701 155.116L76.6578 155.119C74.128 155.692 72.0695 157.248 70.4579 159.652C69.7186 158.387 68.8046 157.353 67.7036 156.578C66.1317 155.471 64.2522 154.941 62.1183 154.941C57.8578 154.941 54.2945 157.298 51.4212 161.663C50.5872 162.89 49.9424 164 49.5029 164.99C49.0674 165.971 48.805 166.896 48.805 167.731C48.805 168.193 48.9521 168.705 49.3939 169.073C49.801 169.413 50.3024 169.497 50.7228 169.497C51.1696 169.497 51.6448 169.383 52.0383 169.049C52.4066 168.737 52.5982 168.323 52.6856 167.911L52.8188 167.511C53.0129 166.928 53.2313 166.344 53.4743 165.76C54.0474 164.519 54.6843 163.432 55.3818 162.492L55.4072 162.466L55.6997 162.173V162.043C57.6825 159.701 59.7519 158.642 61.9126 158.625C62.8793 158.736 63.5626 159.115 64.0544 159.726C64.5709 160.368 64.9489 161.357 65.0948 162.8C65.0825 163.562 64.7693 165.382 64.0875 168.391C63.4032 171.41 62.3747 175.516 61.0001 180.715C60.7555 181.596 60.4888 182.396 60.2012 183.118C58.6955 186.562 56.8249 187.939 54.6997 187.939C54.2647 187.939 53.8555 187.907 53.4707 187.845C53.9355 187.498 54.3318 187.095 54.6474 186.63C55.2071 185.806 55.4703 184.852 55.4703 183.809C55.4703 183.487 55.438 183.166 55.3744 182.848L55.3707 182.829L55.3662 182.811C55.1666 181.978 54.7415 181.27 54.0469 180.787C53.3689 180.316 52.536 180.13 51.6405 180.13C50.8638 180.13 50.1227 180.324 49.4294 180.697C48.4782 181.148 47.7144 181.789 47.1941 182.635C46.6706 183.487 46.4341 184.481 46.4341 185.57C46.4341 186.677 46.7432 187.68 47.3891 188.531C48.8713 190.676 51.3922 191.623 54.6232 191.623C55.7959 191.623 56.9333 191.359 58.0265 190.842C59.8634 190.008 61.3751 188.69 62.5704 186.93C63.4233 188.431 64.5368 189.601 65.9209 190.399C67.3612 191.229 69.038 191.623 70.9134 191.623C75.1758 191.623 78.7403 189.264 81.6143 184.896C82.4243 183.666 83.0501 182.554 83.4761 181.563C83.8978 180.583 84.1502 179.662 84.1502 178.833C84.1502 178.371 84.0031 177.859 83.5613 177.491C83.1542 177.151 82.6528 177.067 82.2324 177.067C81.7841 177.067 81.3319 177.196 80.9551 177.515C80.5955 177.819 80.3908 178.225 80.2779 178.63C79.5443 181.024 78.5316 182.96 77.2614 184.467L77.2613 184.466L77.2524 184.477C75.2917 186.871 73.2323 187.939 71.0664 187.939C70.6565 187.939 70.3194 187.878 70.0412 187.773L70.0085 187.761L69.975 187.751C69.2596 187.538 68.7657 187.149 68.43 186.576C68.0786 185.978 67.86 185.106 67.86 183.886C67.86 183.479 67.9512 182.743 68.1669 181.625C68.3789 180.527 68.6992 179.117 69.1304 177.391L69.1308 177.389L71.7311 166.9Z" fill="white" stroke="white" stroke-width="2"/>
<path d="M160.746 168.905C161.162 168.997 161.433 169.287 161.577 169.493C161.756 169.749 161.876 170.058 161.964 170.354L162.007 170.494V170.641C162.007 171.516 161.416 172.093 160.804 172.433L160.578 172.559H160.468L160.431 172.584L160.365 172.616C155.54 174.909 152.011 178.557 149.76 183.604L149.684 183.773L149.644 183.813C149.643 183.815 149.643 183.817 149.642 183.819L149.62 183.886L149.588 183.95C149.394 184.339 149.113 184.683 148.727 184.925C148.339 185.168 147.906 185.269 147.47 185.269C146.98 185.269 146.428 185.175 145.984 184.82C145.498 184.43 145.322 183.877 145.322 183.35C145.322 182.721 145.602 181.967 145.976 181.193C146.371 180.376 146.949 179.381 147.698 178.218C148.906 176.313 150.283 174.629 151.83 173.172H95.7693H95.6865L95.6048 173.158C94.7786 173.02 94.046 172.801 93.4725 172.453C92.8789 172.092 92.4098 171.562 92.2649 170.836L92.2455 170.739V170.641C92.2455 169.797 92.6249 169.082 93.3577 168.637C94.0099 168.241 94.8595 168.109 95.7693 168.109H151.803C149.308 165.799 147.352 163.028 145.94 159.805L145.847 159.713L145.771 159.515C145.641 159.174 145.536 158.884 145.463 158.65C145.405 158.464 145.322 158.183 145.322 157.931C145.322 157.405 145.498 156.851 145.984 156.462C146.428 156.106 146.98 156.012 147.47 156.012C148.584 156.012 149.294 156.773 149.686 157.684C151.808 162.459 155.047 165.971 159.415 168.262H159.662L159.931 168.532M160.746 168.905C160.746 168.905 160.746 168.905 160.747 168.905C160.786 168.922 160.826 168.939 160.865 168.956L160.471 169.875V168.875C160.569 168.875 160.66 168.886 160.746 168.905ZM160.746 168.905C160.452 168.779 160.172 168.659 159.931 168.532M159.931 168.532C159.893 168.512 159.856 168.491 159.821 168.471L159.528 168.982L159.324 169.339M159.931 168.532L159.955 168.556L160.031 168.632L159.324 169.339M159.324 169.339L159.248 169.262L159.324 169.339Z" fill="white" stroke="white" stroke-width="2"/>
<path d="M185.743 155.024C181.232 155.472 177.143 158.007 173.469 162.421L173.469 162.421L173.462 162.43C169.508 167.285 167.502 172.608 167.502 178.373C167.502 181.169 168.093 183.685 169.304 185.892C170.289 187.753 171.569 189.198 173.16 190.174C174.755 191.152 176.605 191.623 178.673 191.623C182.05 191.623 185.226 189.948 188.201 186.844C188.293 187.045 188.394 187.241 188.504 187.431C189.213 188.786 190.165 189.847 191.375 190.565C192.589 191.285 194.002 191.623 195.575 191.623C198.427 191.623 200.596 189.875 202.126 186.866L202.129 186.859C202.459 186.2 202.78 185.419 203.096 184.525L203.1 184.514L203.103 184.503C203.565 183.089 203.917 181.918 204.154 180.996C204.383 180.103 204.529 179.355 204.529 178.833C204.529 178.371 204.382 177.859 203.94 177.491C203.533 177.151 203.032 177.067 202.611 177.067H202.529L202.447 177.081C201.905 177.171 201.538 177.562 201.325 177.837C201.081 178.15 200.854 178.556 200.636 179.02L200.596 179.104L200.573 179.195C200.219 180.56 199.917 181.667 199.668 182.519C199.022 184.503 198.33 185.9 197.624 186.784C196.927 187.655 196.295 187.939 195.728 187.939C195.265 187.939 195.024 187.787 194.845 187.513C194.618 187.164 194.434 186.515 194.434 185.417C194.434 184.431 194.735 182.652 195.397 179.998C195.757 178.61 196.318 176.309 197.081 173.101L199.833 162.391L199.833 162.391L199.834 162.385C200.014 161.664 200.152 161.075 200.245 160.621C200.331 160.202 200.399 159.81 200.399 159.539V159.484L200.393 159.429C200.3 158.59 200.012 157.817 199.412 157.257C198.805 156.692 198.016 156.472 197.181 156.472C196.777 156.472 196.382 156.537 196.008 156.681C195.167 156.948 194.468 157.437 193.948 158.142C193.87 158.248 193.796 158.359 193.727 158.473C193.107 157.618 192.399 156.904 191.596 156.345C190.241 155.401 188.674 154.941 186.933 154.941C186.536 154.941 186.139 154.969 185.743 155.024ZM188.029 180.423L187.998 180.545V180.588L187.987 180.609L187.962 180.695C187.755 181.399 187.353 182.116 186.716 182.845L186.702 182.861L186.688 182.878C183.854 186.412 181.23 187.939 178.826 187.939C178.196 187.939 177.705 187.814 177.317 187.602L177.311 187.598L177.304 187.595C175.86 186.834 174.932 185.076 174.932 181.742C174.932 180.808 175.073 179.497 175.374 177.786C176.385 172.373 177.611 168.272 179.027 165.434C179.416 164.704 179.828 164.026 180.261 163.4L180.261 163.399C182.584 160.035 184.846 158.625 187.01 158.625C188.603 158.625 189.851 159.345 190.815 160.969L190.817 160.972C191.685 162.42 192.042 163.525 192.051 164.33C192.05 164.337 192.049 164.347 192.047 164.36C192.04 164.412 192.028 164.487 192.009 164.591C191.974 164.792 191.92 165.075 191.847 165.443L188.029 180.423Z" fill="white" stroke="white" stroke-width="2"/>
</g>
</g>
<defs>
<clipPath id="clip0_207_132">
<rect width="231" height="225" fill="white" transform="translate(14 17)"/>
</clipPath>
</defs>
</svg>
