<svg width="259" height="260" viewBox="0 0 259 260" fill="none" xmlns="http://www.w3.org/2000/svg">
<g clip-path="url(#clip0_207_198)">
<mask id="mask0_207_198" style="mask-type:luminance" maskUnits="userSpaceOnUse" x="36" y="-3" width="192" height="299">
<path d="M36.1876 -2.33972H227.546V295.558H36.1876V-2.33972Z" fill="white"/>
</mask>
<g mask="url(#mask0_207_198)">
<path d="M127.538 179.283H82.0997L128.296 125.693L128.377 125.6L128.432 125.489C128.546 125.262 128.612 125.013 128.646 124.868C128.665 124.786 128.68 124.715 128.689 124.663C128.692 124.65 128.694 124.638 128.696 124.627C128.698 124.617 128.699 124.607 128.701 124.599L128.704 124.579L128.705 124.572L128.705 124.57L128.706 124.569L128.706 124.568L128.706 124.568C128.706 124.568 128.706 124.568 127.717 124.415L128.706 124.568L128.717 124.492V124.415C128.717 124.014 128.602 123.637 128.432 123.297L128.394 123.222L128.344 123.154L86.193 65.7521H126.642C136.205 65.7521 144.585 66.116 151.786 66.8412C158.915 67.5591 165.756 69.4561 172.315 72.5347C178.765 75.562 183.333 80.1957 186.07 86.4546L186.332 87.054H186.986H189.674H191.196L190.591 85.6569L179.481 59.9785L179.221 59.3756H178.564H68.449C67.9561 59.3756 67.5336 59.5749 67.1994 59.8568C66.834 60.1651 66.553 60.6124 66.553 61.1795V63.9483V64.111L66.6046 64.2654L67.553 63.9483C66.6046 64.2654 66.6047 64.2656 66.6047 64.2658L66.6049 64.2661L66.6051 64.2669L66.6057 64.2686L66.6069 64.2722L66.6099 64.2808L66.6177 64.3028C66.6239 64.3196 66.6318 64.3407 66.6417 64.3653C66.6613 64.414 66.6893 64.479 66.7263 64.5529C66.787 64.6739 66.8915 64.8585 67.0514 65.0354L114.973 130.483L67.0847 186.081C66.7264 186.455 66.553 186.926 66.553 187.428C66.553 187.888 66.6559 188.419 67.0381 188.839C67.4362 189.275 67.9712 189.41 68.449 189.41H178.564H179.255L179.499 188.763L190.609 159.334L191.12 157.981H189.674H186.986H186.301L186.054 158.619C183.642 164.828 179.283 169.443 172.914 172.48C166.433 175.571 159.616 177.475 152.458 178.193C145.227 178.919 136.921 179.283 127.538 179.283Z" fill="white" stroke="white" stroke-width="2"/>
</g>
</g>
<defs>
<clipPath id="clip0_207_198">
<rect width="160" height="157" fill="white" transform="translate(50 51)"/>
</clipPath>
</defs>
</svg>
