<svg width="259" height="260" viewBox="0 0 259 260" fill="none" xmlns="http://www.w3.org/2000/svg">
<g clip-path="url(#clip0_201_20)">
<mask id="mask0_201_20" style="mask-type:luminance" maskUnits="userSpaceOnUse" x="53" y="19" width="153" height="221">
<path d="M53 19H206V240H53V19Z" fill="white"/>
</mask>
<g mask="url(#mask0_201_20)">
<path d="M149.328 61.6651L149.359 61.5425V61.4159C149.359 60.9015 149.192 60.3533 148.717 59.9634C148.279 59.6049 147.733 59.5107 147.254 59.5107C145.319 59.5107 141.666 59.8197 136.347 60.4223L136.334 60.4236L136.322 60.4253C135.726 60.5078 135.164 60.7674 134.771 61.2834C134.394 61.7783 134.269 62.3844 134.269 62.9794V63.0648L134.284 63.149C134.403 63.8413 134.842 64.3362 135.428 64.62C135.965 64.8797 136.621 64.9668 137.309 64.9668C138.649 64.9668 139.573 65.0498 140.134 65.1856L140.15 65.1895L140.166 65.1928C140.41 65.2434 140.516 65.3059 140.552 65.3324L140.324 66.8078L135.83 83.993C135.146 83.083 134.368 82.3257 133.49 81.7343C132.005 80.7343 130.291 80.2471 128.384 80.2471C127.948 80.2471 127.513 80.2768 127.079 80.3359C122.112 80.8114 117.593 83.5116 113.516 88.2474L113.516 88.2474L113.509 88.2557C109.126 93.4611 106.899 99.1698 106.899 105.357C106.899 108.357 107.555 111.053 108.896 113.415C109.987 115.408 111.399 116.948 113.148 117.984C114.898 119.023 116.929 119.523 119.204 119.523C122.953 119.523 126.496 117.701 129.83 114.29C129.95 114.558 130.085 114.818 130.235 115.068C131.019 116.517 132.067 117.644 133.39 118.403C134.717 119.164 136.263 119.523 137.989 119.523C141.084 119.523 143.467 117.691 145.164 114.463L145.168 114.456C145.532 113.75 145.889 112.914 146.239 111.954L146.243 111.943L146.246 111.931C146.76 110.413 147.15 109.155 147.413 108.165C147.668 107.206 147.829 106.407 147.829 105.851C147.829 105.359 147.666 104.83 147.202 104.456C146.779 104.114 146.257 104.028 145.809 104.028H145.729L145.65 104.041C145.1 104.13 144.714 104.518 144.477 104.813C144.212 105.144 143.961 105.575 143.72 106.072L143.678 106.158L143.653 106.251C143.26 107.719 142.924 108.909 142.646 109.825C141.929 111.96 141.156 113.47 140.363 114.43C139.581 115.377 138.848 115.713 138.159 115.713C137.596 115.713 137.291 115.527 137.076 115.208C136.814 114.819 136.609 114.109 136.609 112.928C136.609 111.757 136.767 110.523 137.089 109.223C137.089 109.221 137.089 109.22 137.09 109.219L149.328 61.6651ZM129.712 107.571L129.679 107.696V107.747L129.664 107.777L129.637 107.864C129.405 108.629 128.953 109.409 128.237 110.2L128.223 110.216L128.209 110.232C125.057 114.033 122.11 115.713 119.374 115.713C118.654 115.713 118.084 115.574 117.631 115.335L117.625 115.332L117.618 115.328C115.961 114.484 114.934 112.557 114.934 108.978C114.934 107.97 115.092 106.558 115.427 104.719C116.551 98.8992 117.914 94.4856 119.491 91.4278C119.925 90.6412 120.384 89.9105 120.867 89.2347L120.868 89.234C123.451 85.6162 125.994 84.0574 128.469 84.0574C130.3 84.0574 131.72 84.8641 132.802 86.6254L132.804 86.6289C133.773 88.1924 134.174 89.3899 134.184 90.2656C134.183 90.274 134.181 90.2859 134.179 90.3019C134.171 90.358 134.157 90.44 134.137 90.5514C134.097 90.7684 134.037 91.0731 133.955 91.4689L129.712 107.571Z" fill="white" stroke="white" stroke-width="2"/>
<path d="M80.1891 132.068H79.1891V133.068V136.36V137.36H80.1891H173.009H174.009V136.36V133.068V132.068H173.009H80.1891Z" fill="white" stroke="white" stroke-width="2"/>
<path d="M127.428 151.154L127.46 151.032V150.905C127.46 150.391 127.293 149.843 126.817 149.453C126.38 149.094 125.834 149 125.355 149C123.42 149 119.767 149.309 114.447 149.912L114.435 149.913L114.423 149.915C113.827 149.997 113.264 150.257 112.872 150.773C112.495 151.268 112.37 151.874 112.37 152.469V152.554L112.384 152.638C112.504 153.331 112.943 153.825 113.529 154.109C114.066 154.369 114.722 154.456 115.41 154.456C116.75 154.456 117.674 154.539 118.235 154.675L118.251 154.679L118.267 154.682C118.511 154.733 118.617 154.795 118.653 154.822L118.425 156.297L113.931 173.482C113.247 172.572 112.469 171.815 111.591 171.224C110.106 170.224 108.392 169.736 106.485 169.736C106.049 169.736 105.614 169.766 105.18 169.825C100.213 170.301 95.6937 173.001 91.6171 177.737L91.6171 177.737L91.6101 177.745C87.2267 182.95 85 188.659 85 194.847C85 197.846 85.6563 200.542 86.9965 202.904C88.0879 204.897 89.5003 206.437 91.2486 207.474C92.9991 208.512 95.03 209.013 97.305 209.013C101.054 209.013 104.596 207.19 107.931 203.779C108.051 204.048 108.186 204.307 108.336 204.558C109.12 206.007 110.168 207.133 111.491 207.892C112.818 208.653 114.364 209.013 116.09 209.013C119.185 209.013 121.568 207.18 123.265 203.952L123.268 203.946C123.633 203.239 123.99 202.403 124.34 201.443L124.344 201.432L124.347 201.421C124.861 199.902 125.251 198.644 125.514 197.654C125.769 196.695 125.93 195.896 125.93 195.34C125.93 194.848 125.767 194.319 125.303 193.945C124.88 193.604 124.358 193.517 123.91 193.517H123.83L123.751 193.53C123.201 193.619 122.815 194.007 122.578 194.303C122.313 194.633 122.062 195.065 121.821 195.561L121.779 195.647L121.754 195.74C121.361 197.208 121.025 198.399 120.747 199.315C120.03 201.449 119.257 202.959 118.464 203.919C117.682 204.866 116.949 205.202 116.26 205.202C115.697 205.202 115.392 205.016 115.177 204.697C114.915 204.308 114.71 203.598 114.71 202.417C114.71 201.247 114.867 200.013 115.19 198.712C115.19 198.711 115.19 198.709 115.191 198.708L127.428 151.154ZM107.813 197.06L107.78 197.186V197.237L107.765 197.266L107.738 197.354C107.506 198.118 107.053 198.898 106.338 199.689L106.324 199.705L106.31 199.721C103.158 203.523 100.211 205.202 97.475 205.202C96.7545 205.202 96.1846 205.063 95.7319 204.824L95.7255 204.821L95.719 204.817C94.0624 203.973 93.035 202.046 93.035 198.467C93.035 197.459 93.1927 196.048 93.5278 194.208C94.6518 188.388 96.0154 183.975 97.5923 180.917C98.0262 180.131 98.4851 179.4 98.9684 178.724L98.9689 178.723C101.552 175.105 104.095 173.547 106.57 173.547C108.401 173.547 109.821 174.353 110.903 176.115L110.905 176.118C111.874 177.682 112.275 178.879 112.285 179.755C112.284 179.763 112.282 179.775 112.28 179.791C112.271 179.847 112.258 179.929 112.237 180.041C112.198 180.258 112.138 180.562 112.056 180.958L107.813 197.06Z" fill="white" stroke="white" stroke-width="2"/>
<path d="M156.159 182.505L156.169 182.466L156.175 182.426C156.223 182.152 156.294 181.875 156.391 181.595L156.401 181.564L156.41 181.532C157.18 178.708 158.199 176.7 159.405 175.411C160.583 174.151 161.965 173.547 163.605 173.547C164.164 173.547 164.687 173.592 165.174 173.68C163.632 174.742 162.775 176.212 162.775 178.06C162.775 178.362 162.813 178.661 162.888 178.955C163.104 179.883 163.567 180.666 164.324 181.201C165.069 181.728 165.994 181.94 167.005 181.94C167.58 181.94 168.165 181.836 168.757 181.645L168.776 181.639L168.794 181.632C169.993 181.193 170.965 180.513 171.63 179.556C172.294 178.6 172.595 177.45 172.595 176.167C172.595 174.932 172.255 173.814 171.55 172.858L171.55 172.858L171.545 172.851C169.918 170.686 167.191 169.736 163.69 169.736C163.058 169.736 162.428 169.798 161.8 169.919L161.788 169.922L161.776 169.924C158.949 170.544 156.646 172.249 154.846 174.913C154.012 173.486 152.973 172.33 151.715 171.473C149.992 170.299 147.931 169.736 145.585 169.736C140.914 169.736 136.985 172.233 133.798 176.915C132.872 178.231 132.158 179.422 131.671 180.482C131.189 181.532 130.9 182.519 130.9 183.409C130.9 183.901 131.063 184.43 131.527 184.804C131.95 185.145 132.472 185.232 132.92 185.232C133.391 185.232 133.886 185.116 134.297 184.779C134.687 184.459 134.896 184.028 134.992 183.591L135.141 183.158C135.357 182.53 135.6 181.901 135.871 181.271C136.51 179.932 137.222 178.757 138.003 177.741L138.036 177.709L138.34 177.414V177.277C140.561 174.734 142.899 173.563 145.364 173.547C146.478 173.669 147.269 174.092 147.834 174.771C148.421 175.475 148.842 176.552 149.005 178.107C148.998 178.485 148.917 179.151 148.734 180.154C148.547 181.18 148.264 182.503 147.884 184.127C147.123 187.372 145.98 191.786 144.452 197.374C144.18 198.323 143.883 199.185 143.562 199.963C141.888 203.665 139.785 205.202 137.34 205.202C136.778 205.202 136.254 205.157 135.764 205.068C136.329 204.68 136.807 204.224 137.181 203.691C137.794 202.818 138.085 201.803 138.085 200.689C138.085 200.345 138.049 200.003 137.979 199.664L137.975 199.645L137.971 199.626C137.75 198.737 137.285 197.995 136.538 197.493C135.811 197.005 134.915 196.809 133.94 196.809C133.101 196.809 132.299 197.011 131.545 197.404C130.506 197.881 129.671 198.556 129.101 199.453C128.527 200.356 128.265 201.415 128.265 202.582C128.265 203.765 128.607 204.832 129.315 205.733C130.938 208.006 133.696 209.013 137.255 209.013C138.536 209.013 139.78 208.733 140.979 208.185C143.054 207.274 144.758 205.817 146.097 203.854C148.048 207.296 151.195 209.013 155.36 209.013C160.033 209.013 163.964 206.514 167.152 201.827C168.05 200.509 168.743 199.317 169.215 198.256C169.682 197.207 169.96 196.223 169.96 195.34C169.96 194.848 169.797 194.319 169.333 193.945C168.91 193.604 168.388 193.517 167.94 193.517C167.471 193.517 167 193.646 166.605 193.97C166.224 194.282 166.001 194.703 165.877 195.135C165.06 197.712 163.931 199.801 162.511 201.431L162.511 201.431L162.502 201.442C160.313 204.025 157.994 205.202 155.53 205.202C155.06 205.202 154.668 205.134 154.341 205.015L154.309 205.004L154.277 204.994C153.449 204.756 152.879 204.319 152.496 203.688C152.098 203.032 151.855 202.086 151.855 200.771C151.855 200.329 151.957 199.535 152.197 198.334C152.433 197.152 152.789 195.636 153.268 193.78L153.269 193.778L156.159 182.505Z" fill="white" stroke="white" stroke-width="2"/>
</g>
</g>
<defs>
<clipPath id="clip0_201_20">
<rect width="153" height="221" fill="white" transform="translate(53 19)"/>
</clipPath>
</defs>
</svg>
